<svg width="20" height="20" viewBox="0 0 20 20" fill="none" xmlns="http://www.w3.org/2000/svg">
<circle opacity="0.4" cx="10" cy="10" r="10" fill="#FF83CF"/>
<circle cx="10" cy="10" r="7.5" fill="#FF83CF"/>
<g clip-path="url(#clip0_0_2344)">
<path fill-rule="evenodd" clip-rule="evenodd" d="M12.8881 6.4212C13.0663 6.58635 13.1829 6.93105 13.2059 7.13895C13.4714 7.30365 13.7854 7.63575 13.8129 8.26125C14.2867 8.5902 14.6467 9.1986 14.1972 10.0882C14.4582 10.3312 14.7493 11.0728 14.3749 11.6704C13.9389 12.3688 12.9912 12.4174 12.0466 12.2928C12.2986 12.997 12.3931 13.6468 11.9945 14.3124C11.598 14.9028 11.0508 14.9986 10.8636 14.9986C10.3515 14.9986 10.0005 14.5581 9.8583 13.9713C9.80655 13.8075 9.7476 13.4205 9.72465 13.3188C9.6054 12.6708 9.20445 12.1524 8.52315 11.7649C8.22005 11.5908 7.89993 11.4482 7.5678 11.3392H6.5148C6.28035 11.3392 6 11.1021 6 10.815V7.3788C6.0333 7.0539 6.21375 6.8919 6.5409 6.8919H7.9404C8.5542 6.7524 9.1662 6.603 9.77595 6.44415C10.365 6.2853 10.4941 6.23265 10.9063 6.11925C11.8302 5.87985 12.4714 6.0117 12.8881 6.4212ZM11.8162 6.612C11.4477 6.612 10.9811 6.7254 10.774 6.79155C10.7011 6.8145 10.5733 6.8523 10.4388 6.891L10.3038 6.93015L10.1742 6.96705L9.9222 7.03815C9.9222 7.03815 9.2877 7.20825 8.04435 7.49715C7.998 7.50255 7.97325 7.50615 7.96965 7.50705V10.828C8.6496 11.0899 9.17925 11.4076 9.55815 11.7811C10.1269 12.3409 10.2849 12.8467 10.378 13.4943C10.4311 13.8196 10.5171 14.082 10.6467 14.2615C10.6839 14.3153 10.7381 14.3551 10.8006 14.3745C10.8667 14.3956 10.9581 14.397 11.1529 14.2917C11.3478 14.1855 11.5984 13.9078 11.6457 13.4943C11.6772 13.0924 11.5692 12.7441 11.4243 12.3778C11.3743 12.253 11.3207 12.1297 11.2636 12.0079C11.1655 11.8221 11.3131 11.5134 11.6173 11.5804C12.025 11.6952 13.0367 11.8504 13.6073 11.5804C13.9389 11.3883 14.0212 11.0782 13.8534 10.6507C13.7979 10.5527 13.7219 10.4679 13.6307 10.4019C13.5542 10.356 13.4047 10.1571 13.5843 9.93165C13.7625 9.6459 14.0231 9.06405 13.3638 8.70135C13.3178 8.67606 13.2794 8.63896 13.2525 8.59387C13.2256 8.54879 13.2112 8.49734 13.2108 8.44485C13.2018 8.32155 13.2216 7.86435 12.8823 7.66005C12.8013 7.6164 12.7036 7.5804 12.6483 7.47555C12.6132 7.40625 12.6019 7.23795 12.6019 7.23795C12.5556 6.95355 12.4917 6.68805 11.8162 6.612ZM7.35855 7.50525H6.61245V10.7259H7.35855V7.50525Z" fill="white"/>
</g>
<defs>
<clipPath id="clip0_0_2344">
<rect width="9" height="9" fill="white" transform="translate(6 6)"/>
</clipPath>
</defs>
</svg>
